STARTFONT 2.1
FONT -B&H-Lucida Bright-Medium-I-Normal--14-140-72-72-P-81-ISO8859-1
SIZE 14 72 72
FONTBOUNDINGBOX 24 18 -8 -3

STARTPROPERTIES 22
FONTNAME_REGISTRY "-"
FOUNDRY "B&H"
FAMILY_NAME "Lucida Bright"
WEIGHT_NAME "Medium"
SLANT "I"
SETWIDTH_NAME "Normal"
ADD_STYLE_NAME ""
PIXEL_SIZE 14
POINT_SIZE 140
RESOLUTION_X 72
RESOLUTION_Y 72
SPACING "P"
CHARSET_REGISTRY "ISO8859"
CHARSET_ENCODING "1"
FULL_NAME "LucidaBright-Italic"
AVERAGE_WIDTH 81
WEIGHT 10
X_HEIGHT 8
QUAD_WIDTH 8
DEFAULT_CHAR 32
FONT_DESCENT 3
FONT_ASCENT 15
ENDPROPERTIES

CHARS 190

STARTCHAR space
ENCODING 32
SWIDTH 333 0
DWIDTH 5 0
BBX 1 1 0 0
BITMAP
00
ENDCHAR

STARTCHAR exclam
ENCODING 33
SWIDTH 265 0
DWIDTH 4 0
BBX 3 11 1 0
BITMAP
20
20
20
60
40
40
40
40
00
00
C0
ENDCHAR

STARTCHAR quotedbl
ENCODING 34
SWIDTH 377 0
DWIDTH 5 0
BBX 4 3 3 8
BITMAP
B0
A0
A0
ENDCHAR

STARTCHAR numbersign
ENCODING 35
SWIDTH 608 0
DWIDTH 9 0
BBX 9 11 1 0
BITMAP
0580
0900
0A00
7F80
1600
2400
FF00
4800
4800
5000
9000
ENDCHAR

STARTCHAR dollar
ENCODING 36
SWIDTH 608 0
DWIDTH 9 0
BBX 7 12 2 -1
BITMAP
3E
32
52
70
30
10
28
24
24
A8
F0
20
ENDCHAR

STARTCHAR percent
ENCODING 37
SWIDTH 759 0
DWIDTH 11 0
BBX 10 11 2 0
BITMAP
3840
4880
4900
4A00
5E00
7F80
0A80
14C0
2480
4480
C300
ENDCHAR

STARTCHAR ampersand
ENCODING 38
SWIDTH 727 0
DWIDTH 10 0
BBX 10 11 1 0
BITMAP
0E00
1B00
1300
1600
1C00
6BC0
C880
8D00
C700
C600
7B80
ENDCHAR

STARTCHAR quoteright
ENCODING 39
SWIDTH 265 0
DWIDTH 4 0
BBX 3 4 2 7
BITMAP
60
C0
40
80
ENDCHAR

STARTCHAR parenleft
ENCODING 40
SWIDTH 310 0
DWIDTH 4 0
BBX 5 13 1 -2
BITMAP
08
10
20
40
40
C0
80
80
80
80
80
40
40
ENDCHAR

STARTCHAR parenright
ENCODING 41
SWIDTH 310 0
DWIDTH 4 0
BBX 5 13 0 -2
BITMAP
10
10
10
18
18
18
10
10
10
20
20
40
80
ENDCHAR

STARTCHAR asterisk
ENCODING 42
SWIDTH 458 0
DWIDTH 6 0
BBX 5 5 2 6
BITMAP
50
20
F8
50
90
ENDCHAR

STARTCHAR plus
ENCODING 43
SWIDTH 608 0
DWIDTH 9 0
BBX 8 9 1 0
BITMAP
08
08
08
08
FF
10
10
10
10
ENDCHAR

STARTCHAR comma
ENCODING 44
SWIDTH 265 0
DWIDTH 4 0
BBX 2 4 1 -2
BITMAP
40
C0
40
80
ENDCHAR

STARTCHAR minus
ENCODING 45
SWIDTH 608 0
DWIDTH 9 0
BBX 8 1 1 4
BITMAP
FF
ENDCHAR

STARTCHAR period
ENCODING 46
SWIDTH 265 0
DWIDTH 4 0
BBX 2 1 1 0
BITMAP
C0
ENDCHAR

STARTCHAR slash
ENCODING 47
SWIDTH 458 0
DWIDTH 6 0
BBX 9 13 0 -2
BITMAP
0080
0100
0300
0200
0400
0C00
0800
1000
1000
2000
6000
4000
8000
ENDCHAR

STARTCHAR zero
ENCODING 48
SWIDTH 608 0
DWIDTH 9 0
BBX 8 11 2 0
BITMAP
1C
22
62
43
C2
C2
82
86
84
CC
70
ENDCHAR

STARTCHAR one
ENCODING 49
SWIDTH 608 0
DWIDTH 9 0
BBX 5 11 2 0
BITMAP
38
08
08
18
10
10
10
10
30
30
F8
ENDCHAR

STARTCHAR two
ENCODING 50
SWIDTH 608 0
DWIDTH 9 0
BBX 8 11 1 0
BITMAP
1E
23
23
03
02
04
18
30
40
40
FC
ENDCHAR

STARTCHAR three
ENCODING 51
SWIDTH 608 0
DWIDTH 9 0
BBX 7 11 1 0
BITMAP
3C
26
22
06
08
3C
04
04
84
8C
F0
ENDCHAR

STARTCHAR four
ENCODING 52
SWIDTH 608 0
DWIDTH 9 0
BBX 7 11 1 0
BITMAP
02
06
0E
16
24
64
C4
FE
04
08
1E
ENDCHAR

STARTCHAR five
ENCODING 53
SWIDTH 608 0
DWIDTH 9 0
BBX 8 11 2 0
BITMAP
3F
20
20
20
78
0C
04
04
84
8C
F0
ENDCHAR

STARTCHAR six
ENCODING 54
SWIDTH 608 0
DWIDTH 9 0
BBX 8 11 2 0
BITMAP
1E
33
62
40
FC
C6
C6
86
84
CC
78
ENDCHAR

STARTCHAR seven
ENCODING 55
SWIDTH 608 0
DWIDTH 9 0
BBX 8 11 2 0
BITMAP
7F
02
06
0C
18
10
30
60
40
C0
C0
ENDCHAR

STARTCHAR eight
ENCODING 56
SWIDTH 608 0
DWIDTH 9 0
BBX 7 11 2 0
BITMAP
1E
22
62
22
3C
3C
4E
86
86
C4
78
ENDCHAR

STARTCHAR nine
ENCODING 57
SWIDTH 608 0
DWIDTH 9 0
BBX 8 11 1 0
BITMAP
1C
22
63
43
43
43
46
3A
84
88
F0
ENDCHAR

STARTCHAR colon
ENCODING 58
SWIDTH 265 0
DWIDTH 4 0
BBX 3 8 1 0
BITMAP
60
00
00
00
00
00
00
C0
ENDCHAR

STARTCHAR semicolon
ENCODING 59
SWIDTH 265 0
DWIDTH 4 0
BBX 4 10 1 -2
BITMAP
30
00
00
00
00
00
40
C0
40
80
ENDCHAR

STARTCHAR less
ENCODING 60
SWIDTH 608 0
DWIDTH 9 0
BBX 9 7 1 0
BITMAP
0180
0600
3800
C000
3000
0C00
0200
ENDCHAR

STARTCHAR equal
ENCODING 61
SWIDTH 608 0
DWIDTH 9 0
BBX 9 3 1 2
BITMAP
FF80
0000
FF00
ENDCHAR

STARTCHAR greater
ENCODING 62
SWIDTH 608 0
DWIDTH 9 0
BBX 9 7 0 0
BITMAP
6000
1800
0600
0180
0E00
3000
C000
ENDCHAR

STARTCHAR question
ENCODING 63
SWIDTH 471 0
DWIDTH 7 0
BBX 6 11 2 0
BITMAP
78
8C
8C
08
10
20
40
40
00
00
C0
ENDCHAR

STARTCHAR at
ENCODING 64
SWIDTH 861 0
DWIDTH 12 0
BBX 11 11 2 0
BITMAP
0F80
3040
6020
8720
8920
9320
9220
9640
9B80
4200
3C00
ENDCHAR

STARTCHAR A
ENCODING 65
SWIDTH 747 0
DWIDTH 10 0
BBX 10 11 0 0
BITMAP
0100
0300
0500
0500
0900
0980
1180
3F80
2080
4080
E1C0
ENDCHAR

STARTCHAR B
ENCODING 66
SWIDTH 606 0
DWIDTH 8 0
BBX 9 11 0 0
BITMAP
3F00
1980
1180
1100
3200
3E00
3300
2100
2300
6200
FC00
ENDCHAR

STARTCHAR C
ENCODING 67
SWIDTH 714 0
DWIDTH 10 0
BBX 9 11 2 0
BITMAP
0F80
3080
2080
4000
C000
C000
C000
C000
C000
6300
3C00
ENDCHAR

STARTCHAR D
ENCODING 68
SWIDTH 770 0
DWIDTH 11 0
BBX 11 11 0 0
BITMAP
3F80
18C0
1060
1060
3060
3060
2040
2040
20C0
6180
FE00
ENDCHAR

STARTCHAR E
ENCODING 69
SWIDTH 569 0
DWIDTH 8 0
BBX 9 11 0 0
BITMAP
3F80
1880
1000
1000
3200
3E00
3200
2000
2000
6100
FE00
ENDCHAR

STARTCHAR F
ENCODING 70
SWIDTH 551 0
DWIDTH 8 0
BBX 9 11 0 0
BITMAP
3F80
1880
1000
1000
3200
3E00
3200
2000
2000
6000
F000
ENDCHAR

STARTCHAR G
ENCODING 71
SWIDTH 756 0
DWIDTH 11 0
BBX 9 11 2 0
BITMAP
0F80
3080
2080
4000
C000
C000
C000
C780
C100
6300
3E00
ENDCHAR

STARTCHAR H
ENCODING 72
SWIDTH 776 0
DWIDTH 11 0
BBX 12 11 0 0
BITMAP
3CF0
1860
1060
1040
3040
3FC0
30C0
20C0
2080
6080
F3C0
ENDCHAR

STARTCHAR I
ENCODING 73
SWIDTH 325 0
DWIDTH 5 0
BBX 6 11 0 0
BITMAP
3C
10
10
10
30
30
20
20
20
60
F0
ENDCHAR

STARTCHAR J
ENCODING 74
SWIDTH 422 0
DWIDTH 6 0
BBX 8 13 0 -2
BITMAP
0F
06
04
04
0C
0C
0C
08
08
18
18
90
E0
ENDCHAR

STARTCHAR K
ENCODING 75
SWIDTH 698 0
DWIDTH 10 0
BBX 11 11 0 0
BITMAP
3CE0
18C0
1100
1200
3400
3800
3C00
2400
2200
6300
F380
ENDCHAR

STARTCHAR L
ENCODING 76
SWIDTH 572 0
DWIDTH 8 0
BBX 8 11 0 0
BITMAP
3C
18
10
10
30
30
30
20
20
61
FF
ENDCHAR

STARTCHAR M
ENCODING 77
SWIDTH 865 0
DWIDTH 12 0
BBX 13 11 0 0
BITMAP
3838
1830
1850
2870
28A0
24A0
2520
2760
2660
4440
E0F0
ENDCHAR

STARTCHAR N
ENCODING 78
SWIDTH 762 0
DWIDTH 11 0
BBX 12 11 0 0
BITMAP
3070
1820
2840
2440
2440
2240
2240
2140
2180
4080
E080
ENDCHAR

STARTCHAR O
ENCODING 79
SWIDTH 783 0
DWIDTH 11 0
BBX 10 11 2 0
BITMAP
0F00
3180
20C0
40C0
C0C0
C0C0
C080
C080
C100
6200
3C00
ENDCHAR

STARTCHAR P
ENCODING 80
SWIDTH 579 0
DWIDTH 8 0
BBX 9 11 0 0
BITMAP
3F00
1980
1180
1180
3180
3300
3E00
2000
2000
6000
F000
ENDCHAR

STARTCHAR Q
ENCODING 81
SWIDTH 788 0
DWIDTH 11 0
BBX 11 14 2 -3
BITMAP
0F00
3180
20C0
40C0
C0C0
C0C0
C080
C180
C180
4300
3E00
0800
0600
01E0
ENDCHAR

STARTCHAR R
ENCODING 82
SWIDTH 686 0
DWIDTH 10 0
BBX 9 11 0 0
BITMAP
3F00
1980
1180
1180
3300
3C00
3400
2200
2200
6100
F180
ENDCHAR

STARTCHAR S
ENCODING 83
SWIDTH 549 0
DWIDTH 8 0
BBX 8 11 1 0
BITMAP
1F
31
21
20
30
18
04
06
86
8C
F8
ENDCHAR

STARTCHAR T
ENCODING 84
SWIDTH 663 0
DWIDTH 9 0
BBX 9 11 2 0
BITMAP
FF80
8880
0800
1800
1800
1000
1000
1000
3000
3000
7800
ENDCHAR

STARTCHAR U
ENCODING 85
SWIDTH 727 0
DWIDTH 10 0
BBX 10 11 2 0
BITMAP
F1C0
6100
4100
4100
4100
C100
8100
8200
8200
C400
7800
ENDCHAR

STARTCHAR V
ENCODING 86
SWIDTH 656 0
DWIDTH 9 0
BBX 10 11 2 0
BITMAP
F1C0
4080
6080
2100
2300
2200
2400
2400
1800
1800
1000
ENDCHAR

STARTCHAR W
ENCODING 87
SWIDTH 878 0
DWIDTH 12 0
BBX 13 11 2 0
BITMAP
F238
4210
4610
4620
4E20
4A40
5A40
5280
7380
6300
6300
ENDCHAR

STARTCHAR X
ENCODING 88
SWIDTH 624 0
DWIDTH 9 0
BBX 11 11 0 0
BITMAP
3CE0
0840
0880
0500
0600
0A00
1200
1200
2100
4100
E380
ENDCHAR

STARTCHAR Y
ENCODING 89
SWIDTH 663 0
DWIDTH 9 0
BBX 9 11 2 0
BITMAP
F180
6100
2200
2600
1C00
1800
1000
1000
3000
3000
7800
ENDCHAR

STARTCHAR Z
ENCODING 90
SWIDTH 633 0
DWIDTH 9 0
BBX 9 11 1 0
BITMAP
3F80
2100
0200
0600
0400
0800
1000
3000
2000
4100
FE00
ENDCHAR

STARTCHAR bracketleft
ENCODING 91
SWIDTH 310 0
DWIDTH 4 0
BBX 5 13 1 -2
BITMAP
38
30
20
20
20
60
40
40
40
40
C0
80
E0
ENDCHAR

STARTCHAR backslash
ENCODING 92
SWIDTH 458 0
DWIDTH 6 0
BBX 4 13 2 -2
BITMAP
80
80
80
40
40
40
40
20
20
20
20
10
10
ENDCHAR

STARTCHAR bracketright
ENCODING 93
SWIDTH 310 0
DWIDTH 4 0
BBX 5 13 0 -2
BITMAP
38
08
08
18
10
10
10
10
30
20
20
20
E0
ENDCHAR

STARTCHAR asciicircum
ENCODING 94
SWIDTH 608 0
DWIDTH 9 0
BBX 8 9 1 2
BITMAP
04
04
0C
1A
12
22
61
41
81
ENDCHAR

STARTCHAR underscore
ENCODING 95
SWIDTH 500 0
DWIDTH 7 0
BBX 6 1 1 -1
BITMAP
FC
ENDCHAR

STARTCHAR quoteleft
ENCODING 96
SWIDTH 265 0
DWIDTH 4 0
BBX 3 4 2 7
BITMAP
60
40
C0
C0
ENDCHAR

STARTCHAR a
ENCODING 97
SWIDTH 608 0
DWIDTH 9 0
BBX 8 8 1 0
BITMAP
1F
22
42
46
C6
8C
9C
E6
ENDCHAR

STARTCHAR b
ENCODING 98
SWIDTH 596 0
DWIDTH 8 0
BBX 8 11 1 0
BITMAP
70
20
20
2E
7B
73
62
42
44
C4
F8
ENDCHAR

STARTCHAR c
ENCODING 99
SWIDTH 487 0
DWIDTH 7 0
BBX 6 8 1 0
BITMAP
1C
24
44
C0
80
80
C4
78
ENDCHAR

STARTCHAR d
ENCODING 100
SWIDTH 608 0
DWIDTH 9 0
BBX 8 11 1 0
BITMAP
07
01
03
1E
22
42
46
C6
8C
9C
E6
ENDCHAR

STARTCHAR e
ENCODING 101
SWIDTH 518 0
DWIDTH 7 0
BBX 6 8 1 0
BITMAP
1C
24
44
C8
F0
80
C4
78
ENDCHAR

STARTCHAR f
ENCODING 102
SWIDTH 380 0
DWIDTH 5 0
BBX 7 14 1 -3
BITMAP
0E
12
22
78
20
20
60
60
40
40
40
C0
C0
80
ENDCHAR

STARTCHAR g
ENCODING 103
SWIDTH 602 0
DWIDTH 8 0
BBX 8 11 1 -3
BITMAP
0F
13
23
42
46
4E
4A
76
84
C4
78
ENDCHAR

STARTCHAR h
ENCODING 104
SWIDTH 631 0
DWIDTH 9 0
BBX 7 11 1 0
BITMAP
70
20
20
2E
3A
72
62
46
44
C4
86
ENDCHAR

STARTCHAR i
ENCODING 105
SWIDTH 289 0
DWIDTH 4 0
BBX 3 11 1 0
BITMAP
20
00
00
E0
60
40
40
40
C0
C0
E0
ENDCHAR

STARTCHAR j
ENCODING 106
SWIDTH 343 0
DWIDTH 5 0
BBX 7 14 0 -3
BITMAP
06
00
00
0C
04
04
0C
08
08
08
08
98
90
E0
ENDCHAR

STARTCHAR k
ENCODING 107
SWIDTH 560 0
DWIDTH 8 0
BBX 7 11 1 0
BITMAP
60
20
20
26
64
58
70
50
58
C8
8E
ENDCHAR

STARTCHAR l
ENCODING 108
SWIDTH 289 0
DWIDTH 4 0
BBX 3 11 1 0
BITMAP
60
20
20
20
60
40
40
40
40
C0
E0
ENDCHAR

STARTCHAR m
ENCODING 109
SWIDTH 944 0
DWIDTH 13 0
BBX 12 8 1 0
BITMAP
EE60
7BB0
7330
6630
4630
C630
C660
8C60
ENDCHAR

STARTCHAR n
ENCODING 110
SWIDTH 631 0
DWIDTH 9 0
BBX 7 8 1 0
BITMAP
EE
7A
72
62
46
C4
C4
86
ENDCHAR

STARTCHAR o
ENCODING 111
SWIDTH 560 0
DWIDTH 8 0
BBX 7 8 1 0
BITMAP
1C
66
46
C6
C6
C4
C8
70
ENDCHAR

STARTCHAR p
ENCODING 112
SWIDTH 608 0
DWIDTH 9 0
BBX 8 11 1 -3
BITMAP
67
39
31
63
62
42
44
78
C0
C0
80
ENDCHAR

STARTCHAR q
ENCODING 113
SWIDTH 599 0
DWIDTH 8 0
BBX 8 11 1 -3
BITMAP
1F
22
42
46
C6
8E
9C
E4
04
0C
0C
ENDCHAR

STARTCHAR r
ENCODING 114
SWIDTH 470 0
DWIDTH 7 0
BBX 6 8 1 0
BITMAP
EC
70
60
60
40
C0
C0
80
ENDCHAR

STARTCHAR s
ENCODING 115
SWIDTH 440 0
DWIDTH 6 0
BBX 6 8 1 0
BITMAP
3C
64
64
30
18
88
88
F0
ENDCHAR

STARTCHAR t
ENCODING 116
SWIDTH 355 0
DWIDTH 5 0
BBX 4 10 2 0
BITMAP
20
60
F0
40
40
40
C0
80
80
60
ENDCHAR

STARTCHAR u
ENCODING 117
SWIDTH 630 0
DWIDTH 9 0
BBX 7 8 1 0
BITMAP
E6
42
42
46
46
CC
D4
E6
ENDCHAR

STARTCHAR v
ENCODING 118
SWIDTH 558 0
DWIDTH 8 0
BBX 8 8 1 0
BITMAP
C3
21
23
22
34
18
10
10
ENDCHAR

STARTCHAR w
ENCODING 119
SWIDTH 805 0
DWIDTH 11 0
BBX 11 8 1 0
BITMAP
C260
6620
2660
2E40
2A80
3A80
3300
2200
ENDCHAR

STARTCHAR x
ENCODING 120
SWIDTH 510 0
DWIDTH 7 0
BBX 7 8 1 0
BITMAP
62
26
1C
18
38
68
CC
86
ENDCHAR

STARTCHAR y
ENCODING 121
SWIDTH 558 0
DWIDTH 8 0
BBX 9 11 0 -3
BITMAP
7180
3180
1100
1300
1200
1400
1800
1800
1000
6000
C000
ENDCHAR

STARTCHAR z
ENCODING 122
SWIDTH 536 0
DWIDTH 8 0
BBX 7 8 1 0
BITMAP
3E
44
0C
18
10
20
44
FC
ENDCHAR

STARTCHAR braceleft
ENCODING 123
SWIDTH 337 0
DWIDTH 5 0
BBX 5 13 1 -2
BITMAP
18
20
20
20
20
20
C0
40
40
40
80
80
C0
ENDCHAR

STARTCHAR bar
ENCODING 124
SWIDTH 241 0
DWIDTH 3 0
BBX 3 13 1 -2
BITMAP
20
20
20
20
20
40
40
40
40
40
80
80
80
ENDCHAR

STARTCHAR braceright
ENCODING 125
SWIDTH 337 0
DWIDTH 5 0
BBX 5 13 1 -2
BITMAP
30
08
18
10
10
10
18
20
20
20
20
60
C0
ENDCHAR

STARTCHAR asciitilde
ENCODING 126
SWIDTH 608 0
DWIDTH 9 0
BBX 9 2 1 3
BITMAP
7080
8F00
ENDCHAR

STARTCHAR exclamdown
ENCODING 161
SWIDTH 265 0
DWIDTH 4 0
BBX 3 11 1 -3
BITMAP
20
00
00
40
40
40
40
40
C0
C0
80
ENDCHAR

STARTCHAR cent
ENCODING 162
SWIDTH 608 0
DWIDTH 9 0
BBX 6 11 2 0
BITMAP
08
1C
34
50
50
90
90
D0
7C
30
20
ENDCHAR

STARTCHAR sterling
ENCODING 163
SWIDTH 608 0
DWIDTH 9 0
BBX 8 11 2 0
BITMAP
07
09
11
10
10
78
20
20
20
40
FC
ENDCHAR

STARTCHAR currency
ENCODING 164
SWIDTH 608 0
DWIDTH 9 0
BBX 10 9 1 1
BITMAP
40C0
2F80
1100
2100
2100
2100
2200
5E00
8100
ENDCHAR

STARTCHAR yen
ENCODING 165
SWIDTH 608 0
DWIDTH 9 0
BBX 9 11 2 0
BITMAP
F180
6100
2300
2600
1400
1800
7C00
1000
FC00
3000
7800
ENDCHAR

STARTCHAR brokenbar
ENCODING 166
SWIDTH 241 0
DWIDTH 3 0
BBX 3 13 1 -2
BITMAP
20
20
20
20
20
40
00
40
40
40
80
80
80
ENDCHAR

STARTCHAR section
ENCODING 167
SWIDTH 608 0
DWIDTH 9 0
BBX 8 14 1 -3
BITMAP
1F
32
20
20
30
2C
46
62
34
08
04
84
8C
F8
ENDCHAR

STARTCHAR dieresis
ENCODING 168
SWIDTH 560 0
DWIDTH 8 0
BBX 4 1 4 10
BITMAP
90
ENDCHAR

STARTCHAR copyright
ENCODING 169
SWIDTH 843 0
DWIDTH 12 0
BBX 11 11 2 0
BITMAP
1F00
2080
4040
8F20
9920
9020
9020
9020
5E40
2080
1F00
ENDCHAR

STARTCHAR ordfeminine
ENCODING 170
SWIDTH 458 0
DWIDTH 6 0
BBX 5 6 2 5
BITMAP
38
48
D8
98
A8
D8
ENDCHAR

STARTCHAR guillemotleft
ENCODING 171
SWIDTH 525 0
DWIDTH 7 0
BBX 7 6 1 0
BITMAP
36
68
D0
48
48
20
ENDCHAR

STARTCHAR logicalnot
ENCODING 172
SWIDTH 608 0
DWIDTH 9 0
BBX 8 3 1 2
BITMAP
FF
01
01
ENDCHAR

STARTCHAR hyphen
ENCODING 173
SWIDTH 313 0
DWIDTH 4 0
BBX 3 1 1 4
BITMAP
E0
ENDCHAR

STARTCHAR registered
ENCODING 174
SWIDTH 608 0
DWIDTH 9 0
BBX 6 7 2 4
BITMAP
78
84
BC
B4
DC
44
38
ENDCHAR

STARTCHAR macron
ENCODING 175
SWIDTH 560 0
DWIDTH 8 0
BBX 4 1 4 9
BITMAP
F0
ENDCHAR

STARTCHAR degree
ENCODING 176
SWIDTH 277 0
DWIDTH 4 0
BBX 3 4 2 7
BITMAP
40
A0
A0
40
ENDCHAR

STARTCHAR plusminus
ENCODING 177
SWIDTH 608 0
DWIDTH 9 0
BBX 9 9 0 0
BITMAP
0400
0400
0400
7F80
0800
0800
0800
0000
FF00
ENDCHAR

STARTCHAR twosuperior
ENCODING 178
SWIDTH 365 0
DWIDTH 5 0
BBX 4 6 -8 5
BITMAP
70
50
10
30
40
F0
ENDCHAR

STARTCHAR threesuperior
ENCODING 179
SWIDTH 365 0
DWIDTH 5 0
BBX 4 6 -8 5
BITMAP
70
30
60
10
20
E0
ENDCHAR

STARTCHAR acute
ENCODING 180
SWIDTH 560 0
DWIDTH 8 0
BBX 3 2 5 9
BITMAP
60
80
ENDCHAR

STARTCHAR mu
ENCODING 181
SWIDTH 663 0
DWIDTH 9 0
BBX 8 10 1 -2
BITMAP
67
63
62
62
42
46
4E
F7
80
80
ENDCHAR

STARTCHAR paragraph
ENCODING 182
SWIDTH 608 0
DWIDTH 9 0
BBX 6 13 2 -2
BITMAP
7C
F4
F8
E8
68
28
28
28
30
30
30
50
50
ENDCHAR

STARTCHAR periodcentered
ENCODING 183
SWIDTH 608 0
DWIDTH 9 0
BBX 2 1 4 3
BITMAP
C0
ENDCHAR

STARTCHAR cedilla
ENCODING 184
SWIDTH 560 0
DWIDTH 8 0
BBX 2 3 2 -3
BITMAP
40
40
C0
ENDCHAR

STARTCHAR onesuperior
ENCODING 185
SWIDTH 365 0
DWIDTH 5 0
BBX 3 6 -8 5
BITMAP
60
20
40
40
40
E0
ENDCHAR

STARTCHAR ordmasculine
ENCODING 186
SWIDTH 458 0
DWIDTH 6 0
BBX 5 7 2 4
BITMAP
38
48
48
88
88
90
E0
ENDCHAR

STARTCHAR guillemotright
ENCODING 187
SWIDTH 525 0
DWIDTH 7 0
BBX 7 5 1 1
BITMAP
48
24
36
68
90
ENDCHAR

STARTCHAR onequarter
ENCODING 188
SWIDTH 766 0
DWIDTH 11 0
BBX 11 11 3 0
BITMAP
6060
2080
4180
4300
4200
E440
08C0
11C0
2140
43C0
C0C0
ENDCHAR

STARTCHAR onehalf
ENCODING 189
SWIDTH 766 0
DWIDTH 11 0
BBX 11 11 3 0
BITMAP
6060
2080
4180
4300
4200
E5C0
0940
1040
20C0
4100
C3C0
ENDCHAR

STARTCHAR threequarters
ENCODING 190
SWIDTH 766 0
DWIDTH 11 0
BBX 11 11 3 0
BITMAP
7060
3080
6180
1300
2200
E440
08C0
11C0
2140
43C0
C0C0
ENDCHAR

STARTCHAR questiondown
ENCODING 191
SWIDTH 471 0
DWIDTH 7 0
BBX 6 11 1 -3
BITMAP
0C
00
00
08
18
30
60
C0
88
C8
78
ENDCHAR

STARTCHAR Agrave
ENCODING 192
SWIDTH 747 0
DWIDTH 10 0
BBX 10 14 0 0
BITMAP
0300
0100
0080
0100
0300
0500
0500
0900
0980
1180
3F80
2080
4080
E1C0
ENDCHAR

STARTCHAR Aacute
ENCODING 193
SWIDTH 747 0
DWIDTH 10 0
BBX 10 14 0 0
BITMAP
00C0
0100
0000
0100
0300
0500
0500
0900
0980
1180
3F80
2080
4080
E1C0
ENDCHAR

STARTCHAR Acircumflex
ENCODING 194
SWIDTH 747 0
DWIDTH 10 0
BBX 10 14 0 0
BITMAP
0380
0680
0000
0100
0300
0500
0500
0900
0980
1180
3F80
2080
4080
E1C0
ENDCHAR

STARTCHAR Atilde
ENCODING 195
SWIDTH 747 0
DWIDTH 10 0
BBX 10 14 0 0
BITMAP
02C0
0580
0000
0100
0300
0500
0500
0900
0980
1180
3F80
2080
4080
E1C0
ENDCHAR

STARTCHAR Adieresis
ENCODING 196
SWIDTH 747 0
DWIDTH 10 0
BBX 10 13 0 0
BITMAP
0240
0000
0100
0300
0500
0500
0900
0980
1180
3F80
2080
4080
E1C0
ENDCHAR

STARTCHAR Aring
ENCODING 197
SWIDTH 747 0
DWIDTH 10 0
BBX 10 15 0 0
BITMAP
0380
0280
0380
0000
0100
0300
0500
0500
0900
0980
1180
3F80
2080
4080
E1C0
ENDCHAR

STARTCHAR AE
ENCODING 198
SWIDTH 907 0
DWIDTH 13 0
BBX 14 11 0 0
BITMAP
00FC
01C4
0280
0680
0490
09F0
1190
3F00
2100
4308
E7F0
ENDCHAR

STARTCHAR Ccedilla
ENCODING 199
SWIDTH 714 0
DWIDTH 10 0
BBX 9 14 2 -3
BITMAP
0F80
3080
2080
4000
C000
C000
C000
C000
C000
6300
3C00
1000
1000
3000
ENDCHAR

STARTCHAR Egrave
ENCODING 200
SWIDTH 569 0
DWIDTH 8 0
BBX 9 14 0 0
BITMAP
0C00
0400
0000
3F80
1880
1000
1000
3200
3E00
3200
2000
2000
6100
FE00
ENDCHAR

STARTCHAR Eacute
ENCODING 201
SWIDTH 569 0
DWIDTH 8 0
BBX 9 14 0 0
BITMAP
0300
0400
0000
3F80
1880
1000
1000
3200
3E00
3200
2000
2000
6100
FE00
ENDCHAR

STARTCHAR Ecircumflex
ENCODING 202
SWIDTH 569 0
DWIDTH 8 0
BBX 9 14 0 0
BITMAP
0700
0D00
0000
3F80
1880
1000
1000
3200
3E00
3200
2000
2000
6100
FE00
ENDCHAR

STARTCHAR Edieresis
ENCODING 203
SWIDTH 569 0
DWIDTH 8 0
BBX 9 13 0 0
BITMAP
0900
0000
3F80
1880
1000
1000
3200
3E00
3200
2000
2000
6100
FE00
ENDCHAR

STARTCHAR Igrave
ENCODING 204
SWIDTH 325 0
DWIDTH 5 0
BBX 6 14 0 0
BITMAP
18
08
00
3C
10
10
10
30
30
20
20
20
60
F0
ENDCHAR

STARTCHAR Iacute
ENCODING 205
SWIDTH 325 0
DWIDTH 5 0
BBX 6 14 0 0
BITMAP
0C
10
00
3C
10
10
10
30
30
20
20
20
60
F0
ENDCHAR

STARTCHAR Icircumflex
ENCODING 206
SWIDTH 325 0
DWIDTH 5 0
BBX 6 14 0 0
BITMAP
1C
34
00
3C
10
10
10
30
30
20
20
20
60
F0
ENDCHAR

STARTCHAR Idieresis
ENCODING 207
SWIDTH 325 0
DWIDTH 5 0
BBX 6 13 0 0
BITMAP
24
00
3C
10
10
10
30
30
20
20
20
60
F0
ENDCHAR

STARTCHAR Eth
ENCODING 208
SWIDTH 770 0
DWIDTH 11 0
BBX 11 11 0 0
BITMAP
3F80
10C0
1060
1060
2060
7C60
3040
2040
20C0
6180
FE00
ENDCHAR

STARTCHAR Ntilde
ENCODING 209
SWIDTH 762 0
DWIDTH 11 0
BBX 12 14 0 0
BITMAP
02C0
0580
0000
3070
1820
2840
2440
2440
2240
2240
2140
2180
4080
E080
ENDCHAR

STARTCHAR Ograve
ENCODING 210
SWIDTH 783 0
DWIDTH 11 0
BBX 10 14 2 0
BITMAP
0600
0200
0000
0F00
3180
20C0
40C0
C0C0
C0C0
C080
C080
C100
6200
3C00
ENDCHAR

STARTCHAR Oacute
ENCODING 211
SWIDTH 783 0
DWIDTH 11 0
BBX 10 14 2 0
BITMAP
0300
0400
0000
0F00
3180
20C0
40C0
C0C0
C0C0
C080
C080
C100
6200
3C00
ENDCHAR

STARTCHAR Ocircumflex
ENCODING 212
SWIDTH 783 0
DWIDTH 11 0
BBX 10 14 2 0
BITMAP
0700
0D00
0000
0F00
3180
20C0
40C0
C0C0
C0C0
C080
C080
C100
6200
3C00
ENDCHAR

STARTCHAR Otilde
ENCODING 213
SWIDTH 783 0
DWIDTH 11 0
BBX 10 14 2 0
BITMAP
0580
0B00
0000
0F00
3180
20C0
40C0
C0C0
C0C0
C080
C080
C100
6200
3C00
ENDCHAR

STARTCHAR Odieresis
ENCODING 214
SWIDTH 783 0
DWIDTH 11 0
BBX 10 13 2 0
BITMAP
0900
0000
0F00
3180
20C0
40C0
C0C0
C0C0
C080
C080
C100
6200
3C00
ENDCHAR

STARTCHAR multiply
ENCODING 215
SWIDTH 608 0
DWIDTH 9 0
BBX 10 8 0 0
BITMAP
6080
21C0
1300
0C00
0C00
3600
6200
8100
ENDCHAR

STARTCHAR Oslash
ENCODING 216
SWIDTH 783 0
DWIDTH 11 0
BBX 12 11 3 0
BITMAP
07B0
18E0
10E0
21E0
6360
6660
6C40
7840
7080
7100
DE00
ENDCHAR

STARTCHAR Ugrave
ENCODING 217
SWIDTH 727 0
DWIDTH 10 0
BBX 10 14 2 0
BITMAP
0C00
0400
0200
F1C0
6100
4100
4100
4100
C100
8100
8200
8200
C400
7800
ENDCHAR

STARTCHAR Uacute
ENCODING 218
SWIDTH 727 0
DWIDTH 10 0
BBX 10 14 2 0
BITMAP
0600
0800
0000
F1C0
6100
4100
4100
4100
C100
8100
8200
8200
C400
7800
ENDCHAR

STARTCHAR Ucircumflex
ENCODING 219
SWIDTH 727 0
DWIDTH 10 0
BBX 10 14 2 0
BITMAP
0E00
1A00
0000
F1C0
6100
4100
4100
4100
C100
8100
8200
8200
C400
7800
ENDCHAR

STARTCHAR Udieresis
ENCODING 220
SWIDTH 727 0
DWIDTH 10 0
BBX 10 13 2 0
BITMAP
1200
0000
F1C0
6100
4100
4100
4100
C100
8100
8200
8200
C400
7800
ENDCHAR

STARTCHAR Yacute
ENCODING 221
SWIDTH 663 0
DWIDTH 9 0
BBX 9 14 2 0
BITMAP
0600
0800
0000
F180
6100
2200
2600
1C00
1800
1000
1000
3000
3000
7800
ENDCHAR

STARTCHAR Thorn
ENCODING 222
SWIDTH 579 0
DWIDTH 8 0
BBX 9 11 0 0
BITMAP
3C00
1000
1F00
1100
3180
3100
3100
2200
3C00
6000
F000
ENDCHAR

STARTCHAR germandbls
ENCODING 223
SWIDTH 603 0
DWIDTH 8 0
BBX 8 14 1 -3
BITMAP
1E
12
32
24
28
28
64
62
42
53
5C
C0
C0
80
ENDCHAR

STARTCHAR agrave
ENCODING 224
SWIDTH 608 0
DWIDTH 9 0
BBX 8 11 1 0
BITMAP
0C
04
00
1F
22
42
46
C6
8C
9C
E6
ENDCHAR

STARTCHAR aacute
ENCODING 225
SWIDTH 608 0
DWIDTH 9 0
BBX 8 11 1 0
BITMAP
06
08
00
1F
22
42
46
C6
8C
9C
E6
ENDCHAR

STARTCHAR acircumflex
ENCODING 226
SWIDTH 608 0
DWIDTH 9 0
BBX 8 11 1 0
BITMAP
0E
1A
00
1F
22
42
46
C6
8C
9C
E6
ENDCHAR

STARTCHAR atilde
ENCODING 227
SWIDTH 608 0
DWIDTH 9 0
BBX 8 11 1 0
BITMAP
0B
16
00
1F
22
42
46
C6
8C
9C
E6
ENDCHAR

STARTCHAR adieresis
ENCODING 228
SWIDTH 608 0
DWIDTH 9 0
BBX 8 10 1 0
BITMAP
12
00
1F
22
42
46
C6
8C
9C
E6
ENDCHAR

STARTCHAR aring
ENCODING 229
SWIDTH 608 0
DWIDTH 9 0
BBX 8 12 1 0
BITMAP
0E
0A
0E
00
1F
22
42
46
C6
8C
9C
E6
ENDCHAR

STARTCHAR ae
ENCODING 230
SWIDTH 881 0
DWIDTH 12 0
BBX 11 8 1 0
BITMAP
1EE0
2320
4220
4660
C780
8E00
9E20
E3C0
ENDCHAR

STARTCHAR ccedilla
ENCODING 231
SWIDTH 487 0
DWIDTH 7 0
BBX 6 11 1 -3
BITMAP
1C
24
44
C0
80
80
C4
78
20
20
60
ENDCHAR

STARTCHAR egrave
ENCODING 232
SWIDTH 518 0
DWIDTH 7 0
BBX 6 11 1 0
BITMAP
18
08
00
1C
24
44
C8
F0
80
C4
78
ENDCHAR

STARTCHAR eacute
ENCODING 233
SWIDTH 518 0
DWIDTH 7 0
BBX 7 11 1 0
BITMAP
06
08
00
1C
24
44
C8
F0
80
C4
78
ENDCHAR

STARTCHAR ecircumflex
ENCODING 234
SWIDTH 518 0
DWIDTH 7 0
BBX 6 11 1 0
BITMAP
1C
34
00
1C
24
44
C8
F0
80
C4
78
ENDCHAR

STARTCHAR edieresis
ENCODING 235
SWIDTH 518 0
DWIDTH 7 0
BBX 7 10 1 0
BITMAP
12
00
1C
24
44
C8
F0
80
C4
78
ENDCHAR

STARTCHAR igrave
ENCODING 236
SWIDTH 289 0
DWIDTH 4 0
BBX 4 11 1 0
BITMAP
60
20
10
E0
60
40
40
40
C0
C0
E0
ENDCHAR

STARTCHAR iacute
ENCODING 237
SWIDTH 289 0
DWIDTH 4 0
BBX 5 11 1 0
BITMAP
18
20
00
E0
60
40
40
40
C0
C0
E0
ENDCHAR

STARTCHAR icircumflex
ENCODING 238
SWIDTH 289 0
DWIDTH 4 0
BBX 4 11 1 0
BITMAP
70
D0
00
E0
60
40
40
40
C0
C0
E0
ENDCHAR

STARTCHAR idieresis
ENCODING 239
SWIDTH 289 0
DWIDTH 4 0
BBX 5 10 1 0
BITMAP
48
00
E0
60
40
40
40
C0
C0
E0
ENDCHAR

STARTCHAR eth
ENCODING 240
SWIDTH 562 0
DWIDTH 8 0
BBX 7 11 1 0
BITMAP
34
08
14
04
1E
66
46
84
84
C8
70
ENDCHAR

STARTCHAR ntilde
ENCODING 241
SWIDTH 631 0
DWIDTH 9 0
BBX 8 11 1 0
BITMAP
0B
16
00
EE
7A
72
62
46
C4
C4
86
ENDCHAR

STARTCHAR ograve
ENCODING 242
SWIDTH 560 0
DWIDTH 8 0
BBX 7 11 1 0
BITMAP
18
08
00
1C
66
46
C6
C6
C4
C8
70
ENDCHAR

STARTCHAR oacute
ENCODING 243
SWIDTH 560 0
DWIDTH 8 0
BBX 7 11 1 0
BITMAP
06
08
00
1C
66
46
C6
C6
C4
C8
70
ENDCHAR

STARTCHAR ocircumflex
ENCODING 244
SWIDTH 560 0
DWIDTH 8 0
BBX 7 11 1 0
BITMAP
0E
1A
00
1C
66
46
C6
C6
C4
C8
70
ENDCHAR

STARTCHAR otilde
ENCODING 245
SWIDTH 560 0
DWIDTH 8 0
BBX 8 11 1 0
BITMAP
0B
16
00
1C
66
46
C6
C6
C4
C8
70
ENDCHAR

STARTCHAR odieresis
ENCODING 246
SWIDTH 560 0
DWIDTH 8 0
BBX 7 10 1 0
BITMAP
12
00
1C
66
46
C6
C6
C4
C8
70
ENDCHAR

STARTCHAR divide
ENCODING 247
SWIDTH 608 0
DWIDTH 9 0
BBX 8 7 1 1
BITMAP
08
00
00
FF
00
00
10
ENDCHAR

STARTCHAR oslash
ENCODING 248
SWIDTH 560 0
DWIDTH 8 0
BBX 8 8 1 0
BITMAP
1D
66
46
CE
D6
E4
C8
F0
ENDCHAR

STARTCHAR ugrave
ENCODING 249
SWIDTH 630 0
DWIDTH 9 0
BBX 7 11 1 0
BITMAP
0C
04
00
E6
42
42
46
46
CC
D4
E6
ENDCHAR

STARTCHAR uacute
ENCODING 250
SWIDTH 630 0
DWIDTH 9 0
BBX 7 11 1 0
BITMAP
06
08
00
E6
42
42
46
46
CC
D4
E6
ENDCHAR

STARTCHAR ucircumflex
ENCODING 251
SWIDTH 630 0
DWIDTH 9 0
BBX 7 11 1 0
BITMAP
0E
1A
00
E6
42
42
46
46
CC
D4
E6
ENDCHAR

STARTCHAR udieresis
ENCODING 252
SWIDTH 630 0
DWIDTH 9 0
BBX 7 10 1 0
BITMAP
12
00
E6
42
42
46
46
CC
D4
E6
ENDCHAR

STARTCHAR yacute
ENCODING 253
SWIDTH 558 0
DWIDTH 8 0
BBX 9 14 0 -3
BITMAP
0300
0400
0000
7180
3180
1100
1300
1200
1400
1800
1800
1000
6000
C000
ENDCHAR

STARTCHAR thorn
ENCODING 254
SWIDTH 608 0
DWIDTH 9 0
BBX 8 13 1 -3
BITMAP
70
20
27
39
31
63
62
42
44
78
C0
C0
80
ENDCHAR

STARTCHAR ydieresis
ENCODING 255
SWIDTH 558 0
DWIDTH 8 0
BBX 9 13 0 -3
BITMAP
0900
0000
7180
3180
1100
1300
1200
1400
1800
1800
1000
6000
C000
ENDCHAR
ENDFONT
